# xmcd CD database file
#
# Track frame offsets:
#	150
#	12791
#	25570
#	39100
#	51890
#	64615
#	78351
#	92250
#	105822
#	119800
#	132990
#	147704
#	161970
#	174726
#	189290
#	202550
#	214813
#	227551
#	241301
#	253550
#	265155
#	279300
#	292700
#
# Disc length: 4095 seconds
#
# Revision: 0
# Processed by: cddbd v1.5.2PL0 Copyright (c) Steve Scherf et al.
# Submitted via: CDex 1.70beta2
#
DISCID=2c0ffd17
DTITLE=Teddy Wilson - Jazz Roads CD172 - Swing - Teddy Wilson Vol.5 (1937-38)
DYEAR=2006
DGENRE=Jazz
TTITLE0=My First Impression Of You
TTITLE1=When You're Smiling
TTITLE2=When You're Smiling
TTITLE3=I Can't Believe That You're In Love With Me (1)
TTITLE4=I Can't Believe That You're In Love With Me (2)
TTITLE5=If Dreams Come True
TTITLE6=Moments Like This
TTITLE7=I Can't Face The Music
TTITLE8=Don't Be That Way
TTITLE9=If I Were You
TTITLE10=You Go To My Head
TTITLE11=I'll Dream Tonight
TTITLE12=Jungle Love
TTITLE13=Now It Can Be Told
TTITLE14=Laugh And Call It Love
TTITLE15=On The Bumpy Road To Love
TTITLE16=A Tisket, A Tasket
TTITLE17=Everybody's Laughin'
TTITLE18=Here It Is Tomorrow Again
TTITLE19=Say It With A Kiss
TTITLE20=April In My Heart
TTITLE21=I'll Never Fail You
TTITLE22=They Say
EXTD=YEAR: 2006
EXTT0=
EXTT1=
EXTT2=
EXTT3=
EXTT4=
EXTT5=
EXTT6=
EXTT7=
EXTT8=
EXTT9=
EXTT10=
EXTT11=
EXTT12=
EXTT13=
EXTT14=
EXTT15=
EXTT16=
EXTT17=
EXTT18=
EXTT19=
EXTT20=
EXTT21=
EXTT22=
PLAYORDER=
